<?xml version="1.0" standalone="no"?>
<!DOCTYPE svg PUBLIC "-//W3C//DTD SVG 20010904//EN"
 "http://www.w3.org/TR/2001/REC-SVG-20010904/DTD/svg10.dtd">
<svg version="1.0" xmlns="http://www.w3.org/2000/svg"
 width="186.000000pt" height="125.000000pt" viewBox="0 0 186.000000 125.000000"
 preserveAspectRatio="xMidYMid meet">

<g transform="translate(0.000000,125.000000) scale(0.100000,-0.100000)"
fill="#000000" stroke="none">
<path d="M0 625 l0 -625 425 0 425 0 0 400 0 400 -260 0 -260 0 0 -125 0 -125
140 0 140 0 0 -145 0 -145 -190 0 -190 0 0 370 0 370 310 0 310 0 0 125 0 125
-425 0 -425 0 0 -625z"/>
<path d="M1010 625 l0 -625 425 0 425 0 0 625 0 625 -425 0 -425 0 0 -625z
m600 0 l0 -365 -180 0 -180 0 0 365 0 365 180 0 180 0 0 -365z"/>
</g>
</svg>
